<svg width="18" height="16" viewBox="0 0 18 16" fill="none" xmlns="http://www.w3.org/2000/svg">
<path d="M2 13.9V15.25C2 15.4625 1.92817 15.6406 1.7845 15.7843C1.64067 15.9281 1.4625 16 1.25 16H0.75C0.5375 16 0.359417 15.9281 0.21575 15.7843C0.0719168 15.6406 0 15.4625 0 15.25V7.15L2.125 0.75C2.20833 0.516667 2.34583 0.333333 2.5375 0.2C2.72917 0.0666667 2.95 0 3.2 0H14.8C15.05 0 15.2708 0.0666667 15.4625 0.2C15.6542 0.333333 15.7917 0.516667 15.875 0.75L18 7.15V15.25C18 15.4625 17.9282 15.6406 17.7845 15.7843C17.6407 15.9281 17.4625 16 17.25 16H16.725C16.5083 16 16.3333 15.9281 16.2 15.7843C16.0667 15.6406 16 15.4625 16 15.25V13.9H2ZM2.075 5.65H15.925L14.5 2H9H3.2L2.075 5.65ZM4.144 11.15C4.53133 11.15 4.85417 11.0188 5.1125 10.7563C5.37083 10.4938 5.5 10.175 5.5 9.8C5.5 9.41117 5.36875 9.08058 5.10625 8.80825C4.84375 8.53608 4.525 8.4 4.15 8.4C3.76117 8.4 3.43058 8.5355 3.15825 8.8065C2.88608 9.07767 2.75 9.40683 2.75 9.794C2.75 10.1813 2.8855 10.5042 3.1565 10.7625C3.42767 11.0208 3.75683 11.15 4.144 11.15ZM13.875 11.15C14.2638 11.15 14.5944 11.0188 14.8667 10.7563C15.1389 10.4938 15.275 10.175 15.275 9.8C15.275 9.41117 15.1395 9.08058 14.8685 8.80825C14.5973 8.53608 14.2682 8.4 13.881 8.4C13.4937 8.4 13.1708 8.5355 12.9125 8.8065C12.6542 9.07767 12.525 9.40683 12.525 9.794C12.525 10.1813 12.6562 10.5042 12.9187 10.7625C13.1812 11.0208 13.5 11.15 13.875 11.15ZM1.5 12.4H16.5V7.15H1.5V12.4Z" fill="white"/>
</svg>
