<svg width="24" height="24" viewBox="0 0 24 24" fill="none" xmlns="http://www.w3.org/2000/svg">
<rect opacity="0.01" width="24" height="24" fill="white"/>
<path d="M12 13C12.5523 13 13 12.5523 13 12V2C13 1.44772 12.5523 1 12 1C11.4477 1 11 1.44772 11 2V12C11 12.5523 11.4477 13 12 13Z" fill="white"/>
<path d="M16.59 3.10998C16.0985 2.85593 15.494 3.04845 15.24 3.53998C14.9859 4.03152 15.1785 4.63593 15.67 4.88998C18.9496 6.58318 20.6451 10.3003 19.7739 13.8869C18.9027 17.4735 15.6909 19.9985 12 19.9985C8.3091 19.9985 5.09727 17.4735 4.22605 13.8869C3.35484 10.3003 5.05039 6.58318 8.32999 4.88998C8.64796 4.72564 8.85409 4.40415 8.87075 4.04661C8.88741 3.68907 8.71206 3.34981 8.41075 3.15661C8.10944 2.96341 7.72796 2.94564 7.40999 3.10998C3.31155 5.22739 1.19337 9.87359 2.2829 14.3562C3.37243 18.8387 7.3869 21.9943 12 21.9943C16.6131 21.9943 20.6276 18.8387 21.7171 14.3562C22.8066 9.87359 20.6884 5.22739 16.59 3.10998Z" fill="white"/>
</svg>
