<svg width="24" height="24" viewBox="0 0 24 24" fill="none" xmlns="http://www.w3.org/2000/svg">
<g opacity="0.8">
<rect opacity="0.01" x="24" y="24" width="24" height="24" transform="rotate(180 24 24)" fill="white"/>
<path d="M12 13.5C12.8284 13.5 13.5 12.8284 13.5 12C13.5 11.1716 12.8284 10.5 12 10.5C11.1716 10.5 10.5 11.1716 10.5 12C10.5 12.8284 11.1716 13.5 12 13.5Z" fill="white"/>
<path d="M13 2C13.9082 2.02704 14.6301 2.77117 14.6299 3.67969V4.70996C14.6409 4.84093 14.7265 4.95395 14.8496 5C14.9745 5.08002 15.1348 5.07995 15.2598 5L16.0303 4.25977C16.3437 3.94424 16.7701 3.76664 17.2148 3.7666C17.6598 3.7666 18.0869 3.94404 18.4004 4.25977L19.7402 5.62988C20.0596 5.9435 20.2398 6.37269 20.2402 6.82031C20.2416 7.26525 20.0609 7.69151 19.7402 8L18.9297 8.74023C18.8569 8.85273 18.8568 8.99792 18.9297 9.11035C18.9897 9.26025 19.0905 9.37012 19.2305 9.37012H20.3203C21.2495 9.37578 21.9998 10.1304 22 11.0596V13C21.9952 13.901 21.2803 14.6378 20.3799 14.6699H19.29C19.1591 14.681 19.046 14.7666 19 14.8896C18.9271 15.0021 18.9271 15.1473 19 15.2598L19.7305 15.9902C20.0459 16.3037 20.2236 16.7301 20.2236 17.1748C20.2236 17.6197 20.0462 18.0468 19.7305 18.3604L18.3896 19.7002C18.0798 20.0189 17.6545 20.1993 17.21 20.2002C16.7634 20.1943 16.3362 20.015 16.0195 19.7002L15.2598 18.9297C15.1473 18.8569 15.0021 18.8568 14.8896 18.9297C14.7397 18.9897 14.6299 19.0905 14.6299 19.2305V20.3203C14.6242 21.2495 13.8696 21.9998 12.9404 22H11.0498C10.145 22.0005 9.40243 21.2841 9.37012 20.3799V19.29C9.35907 19.1591 9.27347 19.046 9.15039 19C9.0255 18.92 8.86515 18.9201 8.74023 19L7.96973 19.7402C7.65627 20.0558 7.22992 20.2334 6.78516 20.2334C6.34022 20.2334 5.91313 20.056 5.59961 19.7402L4.25977 18.3799C3.9396 18.067 3.75919 17.6381 3.75977 17.1904C3.76563 16.7439 3.94501 16.3167 4.25977 16L5.07031 15.2598C5.1431 15.1473 5.14323 15.0021 5.07031 14.8896C5.0103 14.7397 4.90947 14.6299 4.76953 14.6299H3.67969C2.75052 14.6242 2.00022 13.8696 2 12.9404V11.0498C2.00011 10.1222 2.75206 9.37029 3.67969 9.37012H4.70996C4.84093 9.35907 4.95395 9.27347 5 9.15039C5.08002 9.0255 5.07995 8.86515 5 8.74023L4.25977 8C3.93478 7.6854 3.75098 7.25212 3.75098 6.7998C3.75103 6.3475 3.93475 5.91417 4.25977 5.59961L5.62988 4.25977C5.93968 3.94106 6.36512 3.76075 6.80957 3.75977C7.25605 3.76563 7.6833 3.94501 8 4.25977L8.74023 5.07031C8.85273 5.1431 8.99792 5.14323 9.11035 5.07031C9.26025 5.0103 9.37012 4.90947 9.37012 4.76953V3.67969C9.37578 2.75052 10.1304 2.00022 11.0596 2H13ZM13.3398 8.7666C12.032 8.22487 10.5264 8.5244 9.52539 9.52539C8.5244 10.5264 8.22487 12.032 8.7666 13.3398C9.30844 14.6475 10.5845 15.5 12 15.5C13.933 15.5 15.5 13.933 15.5 12C15.5 10.5845 14.6475 9.30844 13.3398 8.7666Z" fill="white"/>
</g>
</svg>
